<svg width="423" height="543" viewBox="0 0 423 543" xmlns="http://www.w3.org/2000/svg" xmlns:xlink="http://www.w3.org/1999/xlink">
    <defs>
        <path id="mro59px6la" d="M0 0h423v543H0z"/>
    </defs>
    <g fill="none" fill-rule="evenodd">
        <mask id="fk1cp1f39b" fill="#fff">
            <use xlink:href="#mro59px6la"/>
        </mask>
        <path d="M370.797 418.844c-10.85 10.043-23.924 17.465-42.314 24.066L108.44 519.456V329.972l162.063-93.395.127-.074c3.354-2.019 6.197-3.985 8.95-5.894.522-.353 1.044-.722 1.566-1.075 38.433 1.713 67.778 12.14 89.666 31.826 23.032 21.751 34.223 47.514 34.223 78.729 0 31.261-11.228 57.025-34.24 78.755zm-123.863-189.42-138.493 79.825v-79.826h138.493zM90.477 498.9 21.292 380.45l69.185-40.077v158.528zm88.79-480.945c44.783 0 77.851 10.443 101.068 31.931 22.71 20.998 34.23 47.488 34.23 78.75 0 33.529-13.85 62.835-39.072 82.83H90.477v108.151l-72.508 41.98V17.956h161.298zM383.07 248.217l-.153-.126c-21.118-19.021-48.918-30.75-82.851-34.973 20.843-22.474 32.467-52.28 32.467-84.481 0-36.476-13.465-67.405-39.999-91.935C265.847 12.01 228.791 0 179.267 0H0v379.622L95.43 543l239.044-83.152c20.574-7.386 35.996-16.216 48.596-27.898 26.497-24.983 39.93-55.887 39.93-91.861 0-35.96-13.433-66.868-39.93-91.872z" fill="#004B8D" mask="url(#fk1cp1f39b)"/>
    </g>
</svg>
